<mxfile host="app.diagrams.net" modified="2024-03-21T12:09:10.334Z" agent="Mozilla/5.0 (X11; Linux x86_64) AppleWebKit/537.36 (KHTML, like Gecko) Chrome/121.0.0.0 Safari/537.36" version="24.0.7" etag="hP9lciNyEFvbZCcWiksv" type="github">
  <diagram name="PÃ¡gina-1" id="0DaDfG_m0dI0sVL4mCHX">
    <mxGraphModel>
      <root>
        <mxCell id="0" />
        <mxCell id="1" parent="0" />
      </root>
    </mxGraphModel>
  </diagram>
</mxfile>
